<svg width="21" height="19" viewBox="0 0 21 19" xmlns="http://www.w3.org/2000/svg"> <path d="M5.625 0c.768 0 1.533.247 2.295.742a13.5 13.5 0 0 1 2.1 1.68A11.741 11.741 0 0 1 12.1.742C12.874.247 13.633 0 14.375 0c.768 0 1.478.14 2.129.42.651.28 1.256.706 1.816 1.28a5.502 5.502 0 0 1 1.29 1.923c.286.723.43 1.455.43 2.197 0 .743-.144 1.475-.43 2.198a5.698 5.698 0 0 1-1.29 1.943l-1.123 1.201c-.735.788-1.536 1.654-2.402 2.598-.866.944-1.66 1.803-2.383 2.578L11.328 17.5a1.853 1.853 0 0 1-2.012.41 1.848 1.848 0 0 1-.605-.41l-1.006-1.104a611.97 611.97 0 0 1-2.256-2.49 571.756 571.756 0 0 0-3.73-4.101A5.723 5.723 0 0 1 .429 7.87 5.868 5.868 0 0 1 0 5.674c0-.749.143-1.481.43-2.197a5.723 5.723 0 0 1 1.289-1.934C2.266.996 2.868.603 3.525.361A6.056 6.056 0 0 1 5.625 0z" fill="#EC138D" fill-rule="evenodd"></path> </svg>
