<svg width="21" height="19" viewBox="0 0 21 19" xmlns="http://www.w3.org/2000/svg">
  <g fill="#000" fill-rule="evenodd">
    <path d="M10.43 16.64a.603.603 0 0 1-.234.128.831.831 0 0 1-.176.029.622.622 0 0 1-.41-.156c-.196-.208-.638-.7-1.328-1.475-.69-.775-1.43-1.595-2.217-2.461l-2.207-2.421a63.017 63.017 0 0 0-1.26-1.358A4.571 4.571 0 0 1 1.25 5.684c0-.612.117-1.198.352-1.758a4.8 4.8 0 0 1 .996-1.504c.43-.416.892-.716 1.387-.898a4.714 4.714 0 0 1 1.64-.274c.313 0 .752.124 1.319.37.566.249 1.298.815 2.197 1.7l.898.88.879-.9c.625-.637 1.247-1.138 1.866-1.503.618-.364 1.148-.547 1.59-.547.6 0 1.147.108 1.642.323.495.214.97.55 1.426 1.005.429.43.76.925.996 1.485a4.515 4.515 0 0 1 .268 2.608c.365.406.676.859.893 1.367.003-.006.008-.013.01-.02a5.927 5.927 0 0 0 .43-2.197c0-.743-.143-1.475-.43-2.198A5.525 5.525 0 0 0 18.322 1.7c-.56-.573-1.166-1-1.817-1.28a5.35 5.35 0 0 0-2.13-.42c-.741 0-1.5.248-2.274.743a11.694 11.694 0 0 0-2.08 1.679 13.44 13.44 0 0 0-2.1-1.68C7.159.249 6.393 0 5.625 0c-.742 0-1.442.12-2.1.362-.657.24-1.26.634-1.806 1.18a5.734 5.734 0 0 0-1.29 1.935A5.858 5.858 0 0 0 0 5.674c0 .749.144 1.48.43 2.197a5.724 5.724 0 0 0 1.29 1.934 603.36 603.36 0 0 1 3.731 4.102A697.17 697.17 0 0 0 8.71 17.5c.183.183.386.319.607.41a1.855 1.855 0 0 0 2.011-.411s.362-.386 1.084-1.161c.435-.466.904-.972 1.39-1.5a4.91 4.91 0 0 1-1.248-.502c-.723.777-1.436 1.548-2.124 2.305"></path>
    <path d="M18.191 8.75h-2.5v-2.5a.598.598 0 0 0-.186-.439.598.598 0 0 0-.439-.186.59.59 0 0 0-.449.186.617.617 0 0 0-.176.439v2.5h-2.5a.59.59 0 0 0-.449.186.617.617 0 0 0-.176.439c0 .169.06.316.176.439a.59.59 0 0 0 .45.186h2.5v2.5c0 .169.058.316.175.439a.59.59 0 0 0 .45.186.598.598 0 0 0 .438-.186.598.598 0 0 0 .186-.439V10h2.5a.598.598 0 0 0 .44-.186.598.598 0 0 0 .185-.439.598.598 0 0 0-.186-.439.598.598 0 0 0-.439-.186"></path>
  </g>
</svg>